<svg width="12" height="12" viewBox="0 0 12 22" fill="none" xmlns="http://www.w3.org/2000/svg">
<path d="M4.99246 11.4208C5.82663 9.915 7.42996 9.02667 8.36163 7.69417C9.34746 6.29667 8.79496 3.68583 5.99996 3.68583C4.16913 3.68583 3.26996 5.0725 2.89079 6.22083L0.0849609 5.04C0.854128 2.7325 2.94496 0.75 5.98913 0.75C8.53496 0.75 10.2791 1.90917 11.1675 3.36083C11.9258 4.60667 12.37 6.93583 11.2 8.66917C9.89996 10.5867 8.65413 11.1717 7.98246 12.4067C7.71163 12.905 7.60329 13.23 7.60329 14.8333H4.47246C4.46163 13.9883 4.33163 12.6125 4.99246 11.4208ZM8.16663 19.1667C8.16663 20.3583 7.19163 21.3333 5.99996 21.3333C4.80829 21.3333 3.83329 20.3583 3.83329 19.1667C3.83329 17.975 4.80829 17 5.99996 17C7.19163 17 8.16663 17.975 8.16663 19.1667Z" fill="#003585"/>
</svg>
